# xmcd
#
# Track frame offsets:
#	150
#	17779
#	26597
#	48232
#	63834
#	76568
#	86901
#	97668
#	106473
#	113336
#	125654
#	136849
#	146357
#	163233
#	169691
#	175712
#	184229
#	190478
#	198432
#	205098
#	216757
#	232400
#	243508
#	265172
#	273591
#
# Disc length: 3982 seconds
#
# Revision: 0
# Processed by: cddbd v1.5.2PL0 Copyright (c) Steve Scherf et al.
# Submitted via: EasyCDDAExtractor 10.0.6.1
#
DISCID=5d0f8c19
DTITLE=John Harbison by Lorraine Hunt Lieberson, Emily Lodine and The Chicago Ch
DTITLE=amber Musicians - John Harbison - Chamber Music
DYEAR=1900
DGENRE=Avantgarde
TTITLE0=North and South: 6 Poems of Elizabeth Bishop (1999) - Book 1 1. Ballad f
TTITLE0=or Billie 1
TTITLE1=North and South: 6 Poems of Elizabeth Bishop (1999) - Book 1 2. Late Air
TTITLE2=North and South: 6 Poems of Elizabeth Bishop (1999) - Book 1 3. Breakfas
TTITLE2=t Song
TTITLE3=North and South: 6 Poems of Elizabeth Bishop (1999) - Book 2 1. Ballad f
TTITLE3=or Billie 2
TTITLE4=North and South: 6 Poems of Elizabeth Bishop (1999) - Book 2 2. Song
TTITLE5=North and South: 6 Poems of Elizabeth Bishop (1999) - Book 2 3. "Dear, M
TTITLE5=y Compass..."
TTITLE6=6 American Painters (2002) 1. Bingham
TTITLE7=6 American Painters (2002) 2. Eakins
TTITLE8=6 American Painters (2002) 3. Heade
TTITLE9=6 American Painters (2002) 4. Homer
TTITLE10=6 American Painters (2002) 5. Hoffman
TTITLE11=6 American Painters (2002) 6. Diebenkorn
TTITLE12=The 3 Wise Men (from Xmas Vespers) (1998) 1. Prelude
TTITLE13=The 3 Wise Men (from Xmas Vespers) (1998) 2
TTITLE14=The 3 Wise Men (from Xmas Vespers) (1998) 3
TTITLE15=The 3 Wise Men (from Xmas Vespers) (1998) 4
TTITLE16=The 3 Wise Men (from Xmas Vespers) (1998) 5
TTITLE17=The 3 Wise Men (from Xmas Vespers) (1998) 6
TTITLE18=The 3 Wise Men (from Xmas Vespers) (1998) 7
TTITLE19=The 3 Wise Men (from Xmas Vespers) (1998) 8. Postlude
TTITLE20=Books of Hours and Seasons: Goethe Settings for voices, flute, cello, &
TTITLE20=piano (1975) 1. Dem aufgehenden Vollmond
TTITLE21=Books of Hours and Seasons: Goethe Settings for voices, flute, cello, &
TTITLE21=piano (1975) 2. Immer and uberall
TTITLE22=Books of Hours and Seasons: Goethe Settings for voices, flute, cello, &
TTITLE22=piano (1975) 3. Interlude: Jarheszeiten kommen wieder
TTITLE23=Books of Hours and Seasons: Goethe Settings for voices, flute, cello, &
TTITLE23=piano (1975) 4. Mich angstigt das Verfangliche
TTITLE24=Books of Hours and Seasons: Goethe Settings for voices, flute, cello, &
TTITLE24=piano (1975) 5. Um Mitternacht
EXTD=
EXTT0=
EXTT1=
EXTT2=
EXTT3=
EXTT4=
EXTT5=
EXTT6=
EXTT7=
EXTT8=
EXTT9=
EXTT10=
EXTT11=
EXTT12=
EXTT13=
EXTT14=
EXTT15=
EXTT16=
EXTT17=
EXTT18=
EXTT19=
EXTT20=
EXTT21=
EXTT22=
EXTT23=
EXTT24=
PLAYORDER=
